<svg width="40" height="40" viewBox="0 0 40 40" fill="none" xmlns="http://www.w3.org/2000/svg">
<path d="M19.9303 0C8.91986 0 0 9.02778 0 20C0 30.9722 8.91986 40 20.0697 40C31.2195 40 40 30.9722 40 20C40 9.02778 31.0801 0 19.9303 0ZM8.08362 14.8611C8.08362 11.9444 10.453 9.58333 13.3798 9.58333C16.3066 9.58333 18.676 11.9444 18.676 14.8611C18.676 17.7778 16.3066 20.1389 13.3798 20.1389C10.453 20.1389 8.08362 17.7778 8.08362 14.8611ZM19.9303 33.1944C17.0035 33.1944 14.6341 30.8333 14.6341 27.9167C14.6341 25 17.0035 22.6389 19.9303 22.6389C22.8571 22.6389 25.2265 25 25.2265 27.9167C25.2265 30.8333 22.8571 33.1944 19.9303 33.1944ZM26.4808 20.1389C23.554 20.1389 21.1847 17.7778 21.1847 14.8611C21.1847 11.9444 23.554 9.58333 26.4808 9.58333C29.4077 9.58333 31.777 11.9444 31.777 14.8611C31.777 17.7778 29.4077 20.1389 26.4808 20.1389Z" fill="#E5E5E5"/>
</svg>
