<svg width="44" height="38" viewBox="0 0 44 38" fill="none" xmlns="http://www.w3.org/2000/svg">
<path d="M12.0884 18.727V26.6771C12.0884 29.8571 14.8928 32.5071 18.4708 32.5071H26.5938C26.9806 32.5071 27.3674 32.5955 27.6576 32.8605L33.9432 37.5422C35.3938 38.6022 37.618 37.7188 37.618 35.9521V32.5071C41.0993 32.5071 44.0004 29.9454 44.0004 26.6771V18.727C44.0004 15.547 41.196 12.897 37.618 12.897H18.4708C14.9895 12.897 12.0884 15.4587 12.0884 18.727ZM41.196 26.5887C41.196 28.3554 39.6487 29.8571 37.618 29.8571H36.3608C35.4905 29.8571 34.7169 30.4754 34.7169 31.3588V32.5071V34.8038L28.2378 30.0338C28.1411 29.9454 27.9477 29.8571 27.7543 29.8571H18.2774C16.3433 29.8571 14.6994 28.4438 14.6994 26.5887V18.6387C14.6994 16.872 16.2466 15.3703 18.2774 15.3703H37.5213C39.4553 15.3703 41.0993 16.7837 41.0993 18.6387V26.5887H41.196Z" fill="#AFAFAF"/>
<path d="M7.83294 2.65002H26.9801C29.6878 2.65002 31.912 4.6817 31.912 7.15505V9.01007H34.7164V7.15505C34.7164 3.18002 31.2351 0 26.8834 0H7.83294C3.48131 0 0 3.18002 0 7.15505V15.0168C0 18.9918 3.48131 22.1718 7.83294 22.1718V19.6101C5.12526 19.6101 2.90109 17.5785 2.90109 15.1051V7.24339C2.90109 4.6817 5.12526 2.65002 7.83294 2.65002Z" fill="#AFAFAF"/>
</svg>
