<svg width="49" height="40" viewBox="0 0 49 40" fill="none" xmlns="http://www.w3.org/2000/svg">
<path d="M24.5 0C20.003 0 16.3325 3.14472 16.3325 6.9975C16.3325 10.8503 20.003 13.995 24.5 13.995C28.997 13.995 32.6675 10.8503 32.6675 6.9975C32.6675 3.14472 28.997 0 24.5 0ZM24.5 1.9993C27.7358 1.9993 30.3339 4.22522 30.3339 6.9975C30.3339 9.76978 27.7358 11.9957 24.5 11.9957C21.2642 11.9957 18.6661 9.76978 18.6661 6.9975C18.6661 4.22522 21.2642 1.9993 24.5 1.9993ZM24.5 15.9943C18.1085 15.9943 12.6172 19.8166 11.1914 24.9755C8.43421 25.6022 6.10249 26.793 4.40943 28.2868C4.29333 28.3942 4.2062 28.5222 4.1542 28.6617L0.0704495 38.6581C-0.0268372 38.887 -0.0232551 39.1384 0.0805232 39.3652C0.184302 39.5919 0.381137 39.7785 0.634064 39.8897C0.886992 40.0009 1.17861 40.0292 1.45416 39.9692C1.72971 39.9093 1.97023 39.7652 2.13055 39.564C3.9849 37.2808 8.21928 35.4874 12.8322 35.4874C17.4769 35.4874 21.6855 37.2456 23.5338 39.5485C23.6407 39.6837 23.7846 39.7945 23.9531 39.871C24.1215 39.9476 24.3093 39.9877 24.5 39.9877C24.6907 39.9877 24.8785 39.9476 25.0469 39.871C25.2154 39.7945 25.3593 39.6837 25.4662 39.5485C27.3145 37.2456 31.5231 35.4874 36.1678 35.4874C40.7807 35.4874 45.0151 37.2808 46.8694 39.564C47.0298 39.7652 47.2703 39.9093 47.5458 39.9692C47.8214 40.0292 48.113 40.0009 48.3659 39.8897C48.6189 39.7785 48.8157 39.5919 48.9195 39.3652C49.0233 39.1384 49.0268 38.887 48.9296 38.6581L44.8458 28.6617C44.7938 28.5222 44.7067 28.3942 44.5906 28.2868C42.8975 26.793 40.5658 25.6022 37.8086 24.9755C36.3827 19.8166 30.8915 15.9943 24.5 15.9943ZM24.5 17.9936C29.4405 17.9936 33.7223 20.7701 35.2381 24.585C34.6417 24.5317 34.0387 24.4913 33.415 24.4913C30.0416 24.4913 26.8975 25.4913 24.5 26.8186C22.1025 25.4913 18.9584 24.4913 15.585 24.4913C14.9613 24.4913 14.3583 24.5318 13.7619 24.585C15.2777 20.7701 19.5595 17.9936 24.5 17.9936ZM15.585 26.4906C18.4433 26.4906 21.287 27.381 23.3332 28.5211V36.5807C20.6929 34.659 16.9287 33.4881 12.8322 33.4881C9.42589 33.4881 6.26308 34.3527 3.73488 35.7216L6.23253 29.5832C8.30578 27.8191 11.5974 26.4906 15.585 26.4906ZM33.415 26.4906C37.4026 26.4906 40.6942 27.8191 42.7675 29.5832L45.2651 35.7216C42.7369 34.3527 39.5741 33.4881 36.1678 33.4881C32.0713 33.4881 28.3071 34.659 25.6668 36.5807V28.5211C27.713 27.381 30.5567 26.4906 33.415 26.4906Z" fill="#AFAFAF"/>
</svg>
