<svg width="36" height="30" viewBox="0 0 36 30" fill="none" xmlns="http://www.w3.org/2000/svg">
<path d="M2.73248 5.6147L9.73248 9.8147L16.7091 1.0247C16.8633 0.830252 17.0669 0.671757 17.3028 0.562402C17.5388 0.453047 17.8004 0.395996 18.0658 0.395996C18.3312 0.395996 18.5928 0.453047 18.8288 0.562402C19.0648 0.671757 19.2683 0.830252 19.4225 1.0247L26.3991 9.8147L33.3991 5.6147C33.6641 5.45607 33.9739 5.36901 34.2921 5.3638C34.6102 5.3586 34.9234 5.43547 35.1945 5.58533C35.4657 5.73519 35.6835 5.95178 35.8222 6.2095C35.961 6.46722 36.0148 6.7553 35.9775 7.0397L33.2391 27.9902C33.1914 28.3551 32.9965 28.6915 32.6914 28.9356C32.3864 29.1798 31.9924 29.3146 31.5841 29.3147H4.54747C4.13925 29.3146 3.74525 29.1798 3.44019 28.9356C3.13513 28.6915 2.94024 28.3551 2.89248 27.9902L0.154142 7.0382C0.117142 6.75392 0.171284 6.46605 0.310176 6.20857C0.449069 5.95109 0.666913 5.73475 0.937993 5.58509C1.20907 5.43542 1.52207 5.35869 1.84004 5.36393C2.15801 5.36918 2.46767 5.45619 2.73248 5.6147V5.6147ZM18.0658 20.3147C18.9499 20.3147 19.7977 19.9986 20.4228 19.436C21.048 18.8734 21.3991 18.1103 21.3991 17.3147C21.3991 16.519 21.048 15.756 20.4228 15.1934C19.7977 14.6308 18.9499 14.3147 18.0658 14.3147C17.1818 14.3147 16.3339 14.6308 15.7088 15.1934C15.0837 15.756 14.7325 16.519 14.7325 17.3147C14.7325 18.1103 15.0837 18.8734 15.7088 19.436C16.3339 19.9986 17.1818 20.3147 18.0658 20.3147Z" fill="#FFE62E"/>
</svg>
