<svg width="109" height="95" viewBox="0 0 109 95" fill="none" xmlns="http://www.w3.org/2000/svg">
<mask id="mask0_3587_864" style="mask-type:alpha" maskUnits="userSpaceOnUse" x="9" y="12" width="59" height="83">
<path d="M45.6231 61.2788V67.5179H46.793C58.4223 67.5179 67.8498 78.455 67.8498 91.9465V95.0001H9.35864V91.9465C9.35864 78.455 18.7861 67.5179 30.4154 67.5179H31.5853V61.2788C26.5441 58.5005 22.9205 52.8224 22.3159 46.1026C20.6124 45.8232 19.3021 44.1249 19.3021 42.0715V37.3215C19.3021 35.3041 20.5669 33.6294 22.2267 33.3064V31.2144C22.2267 20.7209 29.5592 12.2144 38.6042 12.2144C47.6493 12.2144 54.9817 20.7209 54.9817 31.2144V33.3064C56.6415 33.6294 57.9063 35.3041 57.9063 37.3215V42.0715C57.9063 44.1249 56.596 45.8232 54.8925 46.1026C54.2879 52.8224 50.6643 58.5005 45.6231 61.2788Z" fill="white"/>
</mask>
<g mask="url(#mask0_3587_864)">
<path d="M45.6231 61.2788V67.5179H46.793C58.4223 67.5179 67.8498 78.455 67.8498 91.9465V95.0001H9.35864V91.9465C9.35864 78.455 18.7861 67.5179 30.4154 67.5179H31.5853V61.2788C26.5441 58.5005 22.9205 52.8224 22.3159 46.1026C20.6124 45.8232 19.3021 44.1249 19.3021 42.0715V37.3215C19.3021 35.3041 20.5669 33.6294 22.2267 33.3064V31.2144C22.2267 20.7209 29.5592 12.2144 38.6042 12.2144C47.6493 12.2144 54.9817 20.7209 54.9817 31.2144V33.3064C56.6415 33.6294 57.9063 35.3041 57.9063 37.3215V42.0715C57.9063 44.1249 56.596 45.8232 54.8925 46.1026C54.2879 52.8224 50.6643 58.5005 45.6231 61.2788Z" fill="#D0C6AC"/>
<path d="M77.2082 12.2144H0V95.0001H77.2082V12.2144Z" fill="#AE5D29"/>
<path fill-rule="evenodd" clip-rule="evenodd" d="M54.9818 39.0181V46.8216C54.9818 57.3151 47.6494 65.8216 38.6043 65.8216C29.5593 65.8216 22.2268 57.3151 22.2268 46.8216V39.0181V44.1074C22.2268 54.6008 29.5593 63.1074 38.6043 63.1074C47.6494 63.1074 54.9818 54.6008 54.9818 44.1074V39.0181Z" fill="black" fill-opacity="0.1"/>
</g>
<mask id="mask1_3587_864" style="mask-type:alpha" maskUnits="userSpaceOnUse" x="9" y="67" width="59" height="28">
<path fill-rule="evenodd" clip-rule="evenodd" d="M48.4377 67.6087C59.2984 68.5822 67.8498 79.1145 67.8498 91.9638V94.9999H9.35864V91.9638C9.35864 78.9974 18.0666 68.3904 29.0681 67.5845C28.9924 67.9498 28.9532 68.3241 28.9532 68.7052C28.9532 72.7339 33.3396 75.9999 38.7504 75.9999C44.1613 75.9999 48.5477 72.7339 48.5477 68.7052C48.5477 68.3325 48.5102 67.9664 48.4377 67.6087L48.4377 67.6087Z" fill="white"/>
</mask>
<g mask="url(#mask1_3587_864)">
<path fill-rule="evenodd" clip-rule="evenodd" d="M48.4377 67.6087C59.2984 68.5822 67.8498 79.1145 67.8498 91.9638V94.9999H9.35864V91.9638C9.35864 78.9974 18.0666 68.3904 29.0681 67.5845C28.9924 67.9498 28.9532 68.3241 28.9532 68.7052C28.9532 72.7339 33.3396 75.9999 38.7504 75.9999C44.1613 75.9999 48.5477 72.7339 48.5477 68.7052C48.5477 68.3325 48.5102 67.9664 48.4377 67.6087L48.4377 67.6087Z" fill="#E6E6E6"/>
<path d="M77.2082 57.6782H0V94.9996H77.2082V57.6782Z" fill="#25557C"/>
<path fill-rule="evenodd" clip-rule="evenodd" d="M48.1631 81.9045C47.7555 79.7224 46.3471 78.4608 44.5072 77.9734C43.7685 77.7778 41.3158 77.1635 41.6979 78.7904C41.8712 79.5276 41.7748 80.1355 41.2436 80.7469C40.7259 81.3424 39.7136 81.4931 39.2105 80.7431C38.7793 80.1001 39.3353 79.1413 38.9994 78.515C38.869 78.2717 38.644 78.1474 38.4064 78.2666C38.0727 78.4341 38.2504 78.7941 38.0927 79.053C37.8445 79.4612 37.7284 79.3335 37.505 78.9266C37.3646 78.6709 37.5026 78.3923 37.1404 78.283C36.7212 78.1565 36.584 78.5639 36.5461 78.9352C36.5223 79.1683 36.6403 79.5432 36.6444 79.7796C36.6524 80.2423 36.6179 80.907 36.4324 81.316C36.1035 82.0412 35.6414 81.8092 35.1505 81.3486C34.5714 80.8053 34.4015 80.2002 34.5135 79.375C34.6478 78.3855 34.5991 77.4382 33.5545 78.0572C32.0861 78.9272 30.7236 80.4781 29.8728 82.1012C29.1578 83.465 28.5951 85.1185 29.2285 86.6723C29.875 88.2585 30.9429 89.6209 32.4357 90.0258C32.8222 90.1305 33.9248 90.6401 34.2914 90.2127C34.8607 89.5487 33.5462 88.9295 33.2867 88.5249C32.9188 87.9514 32.6031 86.8574 33.007 86.2105C33.5215 85.3869 34.0595 85.846 34.4824 86.4287C34.8144 86.8861 35.2863 88.0661 35.8001 87.1148C36.1538 86.4597 36.1221 85.3839 37.087 85.8539C38.4658 86.525 38.5081 89.624 38.7539 91.0419C38.8613 91.6625 39.3491 92.4206 39.769 91.5593C39.9997 91.0857 39.8752 90.059 39.8331 89.5699C39.7464 88.5572 39.5173 87.5614 39.8011 86.5581C39.9651 85.9777 40.3862 85.1468 41.0088 85.5932C41.5132 85.9548 41.3031 87.5665 41.9892 87.5635C42.5936 87.5611 42.4287 86.2772 42.7505 85.8539C43.2417 85.2076 44.1882 85.5149 44.4787 86.2775C44.8698 87.3038 43.8347 88.0166 43.8811 88.9188C43.9263 89.7981 44.903 89.4549 45.3115 89.2319C46.1512 88.7738 46.8083 87.9246 47.2637 87.0025C47.9678 85.5763 48.4703 83.5343 48.1631 81.9045Z" fill="white"/>
</g>
<path d="M34.5098 50.8929C34.5098 52.7155 36.3107 53.9465 38.6041 53.9465C40.8975 53.9465 42.6985 52.7155 42.6985 50.8929C42.6985 50.5182 42.4208 50.2144 42.1136 50.2144C41.7355 50.2144 41.5668 50.5215 41.5287 50.8929C41.1653 51.8897 40.2662 52.4931 38.6041 52.5894C36.942 52.4931 36.0429 51.8897 35.6796 50.8929C35.6415 50.5215 35.4727 50.2144 35.0947 50.2144C34.7875 50.2144 34.5098 50.5182 34.5098 50.8929Z" fill="black" fill-opacity="0.6"/>
<path fill-rule="evenodd" clip-rule="evenodd" d="M35.0947 44.1069C35.0947 45.606 36.666 46.8212 38.6042 46.8212C40.5424 46.8212 42.1136 45.606 42.1136 44.1069" fill="black" fill-opacity="0.16"/>
<mask id="mask2_3587_864" style="mask-type:alpha" maskUnits="userSpaceOnUse" x="26" y="34" width="10" height="7">
<path fill-rule="evenodd" clip-rule="evenodd" d="M31.0004 39.7126C33.8109 39.7126 35.0948 41.2229 35.0948 38.869C35.0948 36.5152 33.2616 34.9463 31.0004 34.9463C28.7391 34.9463 26.906 36.5152 26.906 38.869C26.906 41.2229 28.1899 39.7126 31.0004 39.7126Z" fill="white"/>
</mask>
<g mask="url(#mask2_3587_864)">
<path fill-rule="evenodd" clip-rule="evenodd" d="M31.0004 39.7126C33.8109 39.7126 35.0948 41.2229 35.0948 38.869C35.0948 36.5152 33.2616 34.9463 31.0004 34.9463C28.7391 34.9463 26.906 36.5152 26.906 38.869C26.906 41.2229 28.1899 39.7126 31.0004 39.7126Z" fill="white"/>
<path d="M31.0003 40.3746C31.9694 40.3746 32.7551 39.4632 32.7551 38.3389C32.7551 37.2146 31.9694 36.3032 31.0003 36.3032C30.0312 36.3032 29.2456 37.2146 29.2456 38.3389C29.2456 39.4632 30.0312 40.3746 31.0003 40.3746Z" fill="black" fill-opacity="0.7"/>
</g>
<mask id="mask3_3587_864" style="mask-type:alpha" maskUnits="userSpaceOnUse" x="42" y="34" width="9" height="7">
<path fill-rule="evenodd" clip-rule="evenodd" d="M46.2082 39.7126C49.0186 39.7126 50.3025 41.2229 50.3025 38.869C50.3025 36.5152 48.4694 34.9463 46.2082 34.9463C43.9469 34.9463 42.1138 36.5152 42.1138 38.869C42.1138 41.2229 43.3977 39.7126 46.2082 39.7126Z" fill="white"/>
</mask>
<g mask="url(#mask3_3587_864)">
<path fill-rule="evenodd" clip-rule="evenodd" d="M46.2082 39.7126C49.0186 39.7126 50.3025 41.2229 50.3025 38.869C50.3025 36.5152 48.4694 34.9463 46.2082 34.9463C43.9469 34.9463 42.1138 36.5152 42.1138 38.869C42.1138 41.2229 43.3977 39.7126 46.2082 39.7126Z" fill="white"/>
<path d="M46.2081 40.3746C47.1772 40.3746 47.9628 39.4632 47.9628 38.3389C47.9628 37.2146 47.1772 36.3032 46.2081 36.3032C45.239 36.3032 44.4534 37.2146 44.4534 38.3389C44.4534 39.4632 45.239 40.3746 46.2081 40.3746Z" fill="black" fill-opacity="0.7"/>
</g>
<path d="M26.8989 33.6325C27.3362 30.4015 31.0175 28.1974 33.6803 29.6199C33.9737 29.7766 34.3211 29.6277 34.4562 29.2873C34.5913 28.9469 34.463 28.5439 34.1696 28.3871C30.8099 26.5925 26.3023 29.2912 25.7432 33.422C25.6931 33.7923 25.9112 34.1395 26.2304 34.1977C26.5495 34.2558 26.8488 34.0028 26.8989 33.6325Z" fill="black" fill-opacity="0.6"/>
<path d="M50.3096 33.6325C49.8723 30.4015 46.191 28.1974 43.5282 29.6199C43.2348 29.7766 42.8874 29.6277 42.7523 29.2873C42.6172 28.9469 42.7455 28.5439 43.0389 28.3871C46.3986 26.5925 50.9062 29.2912 51.4652 33.422C51.5154 33.7923 51.2973 34.1395 50.9781 34.1977C50.659 34.2558 50.3597 34.0028 50.3096 33.6325Z" fill="black" fill-opacity="0.6"/>
<mask id="mask4_3587_864" style="mask-type:alpha" maskUnits="userSpaceOnUse" x="0" y="0" width="78" height="95">
<path d="M77.2082 0H0V95H77.2082V0Z" fill="white"/>
</mask>
<g mask="url(#mask4_3587_864)">
<mask id="mask5_3587_864" style="mask-type:alpha" maskUnits="userSpaceOnUse" x="0" y="0" width="77" height="67">
<path fill-rule="evenodd" clip-rule="evenodd" d="M23.1099 25.0428C22.5374 26.9778 22.2266 29.054 22.2266 31.2143V33.3063C20.5668 33.6294 19.3021 35.304 19.3021 37.3214V41.7321C19.3021 43.7742 20.5979 45.4651 22.2876 45.7585C22.7974 52.6282 26.4582 58.4532 31.5852 61.2787V64.9919C30.2093 65.7417 28.6729 66.1607 27.0521 66.1607C24.4767 66.1607 22.1142 65.1026 20.2702 63.3406C19.7121 63.4106 19.1451 63.4464 18.5709 63.4464C12.4017 63.4464 7.06647 59.3043 4.51876 53.2865C2.32042 51.5455 0.877366 48.6156 0.877366 45.2946C0.877366 44.5772 0.944718 43.878 1.07248 43.2051C0.379137 41.0575 0 38.7319 0 36.3036C0 31.9755 1.20437 27.9738 3.2455 24.7249C3.22663 24.4594 3.21701 24.1908 3.21701 23.9196C3.21701 20.0866 5.13946 16.7744 7.9268 15.2101C10.3929 9.05949 15.6632 4.72825 21.8318 4.42744C23.3326 2.73712 25.3801 1.69643 27.637 1.69643C28.3176 1.69643 28.9791 1.79105 29.6123 1.96956C32.397 0.698251 35.4303 0 38.6041 0C41.6299 0 44.5279 0.634613 47.2046 1.79537C47.5954 1.73017 47.995 1.69643 48.4014 1.69643C50.6583 1.69643 52.7058 2.73712 54.2066 4.42744C60.3752 4.72825 65.6455 9.05949 68.1116 15.2101C70.899 16.7744 72.8214 20.0866 72.8214 23.9196C72.8214 24.1908 72.8118 24.4594 72.7929 24.7249C74.8341 27.9738 76.0384 31.9755 76.0384 36.3036C76.0384 38.7319 75.6593 41.0575 74.9659 43.2051C75.0937 43.878 75.1611 44.5772 75.1611 45.2946C75.1611 48.6156 73.718 51.5455 71.5197 53.2865C68.9719 59.3043 63.6367 63.4464 57.4675 63.4464C56.8933 63.4464 56.3264 63.4106 55.7682 63.3406C53.9242 65.1026 51.5618 66.1607 48.9863 66.1607C47.8112 66.1607 46.6804 65.9404 45.6231 65.5335V61.2787C50.75 58.4532 54.4108 52.6282 54.9206 45.7585C56.6103 45.4651 57.9062 43.7742 57.9062 41.7321V37.3214C57.9062 35.304 56.6414 33.6294 54.9816 33.3063V31.2143C54.9816 29.3681 54.7547 27.5834 54.3313 25.8957L54.734 30.2625L51.4174 22.1196L38.2171 15.4954L29.4102 19.0775L23.1229 25.928L23.1099 25.0428Z" fill="white"/>
</mask>
<g mask="url(#mask5_3587_864)">
<path fill-rule="evenodd" clip-rule="evenodd" d="M23.1099 25.0428C22.5374 26.9778 22.2266 29.054 22.2266 31.2143V33.3063C20.5668 33.6294 19.3021 35.304 19.3021 37.3214V41.7321C19.3021 43.7742 20.5979 45.4651 22.2876 45.7585C22.7974 52.6282 26.4582 58.4532 31.5852 61.2787V64.9919C30.2093 65.7417 28.6729 66.1607 27.0521 66.1607C24.4767 66.1607 22.1142 65.1026 20.2702 63.3406C19.7121 63.4106 19.1451 63.4464 18.5709 63.4464C12.4017 63.4464 7.06647 59.3043 4.51876 53.2865C2.32042 51.5455 0.877366 48.6156 0.877366 45.2946C0.877366 44.5772 0.944718 43.878 1.07248 43.2051C0.379137 41.0575 0 38.7319 0 36.3036C0 31.9755 1.20437 27.9738 3.2455 24.7249C3.22663 24.4594 3.21701 24.1908 3.21701 23.9196C3.21701 20.0866 5.13946 16.7744 7.9268 15.2101C10.3929 9.05949 15.6632 4.72825 21.8318 4.42744C23.3326 2.73712 25.3801 1.69643 27.637 1.69643C28.3176 1.69643 28.9791 1.79105 29.6123 1.96956C32.397 0.698251 35.4303 0 38.6041 0C41.6299 0 44.5279 0.634613 47.2046 1.79537C47.5954 1.73017 47.995 1.69643 48.4014 1.69643C50.6583 1.69643 52.7058 2.73712 54.2066 4.42744C60.3752 4.72825 65.6455 9.05949 68.1116 15.2101C70.899 16.7744 72.8214 20.0866 72.8214 23.9196C72.8214 24.1908 72.8118 24.4594 72.7929 24.7249C74.8341 27.9738 76.0384 31.9755 76.0384 36.3036C76.0384 38.7319 75.6593 41.0575 74.9659 43.2051C75.0937 43.878 75.1611 44.5772 75.1611 45.2946C75.1611 48.6156 73.718 51.5455 71.5197 53.2865C68.9719 59.3043 63.6367 63.4464 57.4675 63.4464C56.8933 63.4464 56.3264 63.4106 55.7682 63.3406C53.9242 65.1026 51.5618 66.1607 48.9863 66.1607C47.8112 66.1607 46.6804 65.9404 45.6231 65.5335V61.2787C50.75 58.4532 54.4108 52.6282 54.9206 45.7585C56.6103 45.4651 57.9062 43.7742 57.9062 41.7321V37.3214C57.9062 35.304 56.6414 33.6294 54.9816 33.3063V31.2143C54.9816 29.3681 54.7547 27.5834 54.3313 25.8957L54.734 30.2625L51.4174 22.1196L38.2171 15.4954L29.4102 19.0775L23.1229 25.928L23.1099 25.0428Z" fill="#314756"/>
<path d="M76.9158 0H-0.29248V95H76.9158V0Z" fill="#2C1B18"/>
<path fill-rule="evenodd" clip-rule="evenodd" d="M22.1187 33.5806C21.9971 32.7148 21.9341 31.8285 21.9341 30.9264C21.9341 21.154 29.332 13.2319 38.4578 13.2319C47.5836 13.2319 54.9816 21.154 54.9816 30.9264C54.9816 31.8285 54.9185 32.7148 54.7969 33.5806C53.601 25.0673 46.7412 18.5403 38.4578 18.5403C30.1744 18.5403 23.3146 25.0673 22.1187 33.5806Z" fill="#92D9FF"/>
<g filter="url(#filter0_d_3587_864)">
<path fill-rule="evenodd" clip-rule="evenodd" d="M33.7052 34.0217C34.3988 34.0293 34.7266 34.1631 34.8448 35.0023C34.9645 35.8523 34.8481 36.8079 34.7101 37.6452C34.4994 38.9236 34.149 40.1761 33.3333 41.1105C32.9036 41.6026 32.3796 41.9948 31.8222 42.2626C31.5262 42.4049 31.2136 42.5076 30.9011 42.5855C30.8098 42.6083 30.0299 42.7329 30.5082 42.6695C29.392 42.8174 28.181 42.8115 27.2487 41.9872C26.2155 41.0738 25.508 39.6283 25.1969 38.1885C25.0148 37.346 24.6324 35.3311 25.3312 34.6575C26.1318 33.8858 33.7052 34.0217 33.7052 34.0217ZM26.6771 31.7198C25.086 31.7833 24.0242 32.1077 23.2394 33.9518C21.8012 37.3315 24.2628 42.3999 27.0089 43.781C30.2191 45.3959 33.8055 43.6088 35.5027 40.3768C36.4016 38.6655 36.8559 36.0737 36.8266 34.0993C36.7894 31.5793 35.2721 31.5094 33.4887 31.5648L26.6771 31.7198Z" fill="#D6EAF2"/>
<path fill-rule="evenodd" clip-rule="evenodd" d="M43.4825 34.0212C42.7889 34.0288 42.461 34.1625 42.3429 35.0017C42.2231 35.8517 42.3396 36.8074 42.4775 37.6446C42.6883 38.923 43.0387 40.1756 43.8544 41.11C44.284 41.602 44.8081 41.9943 45.3655 42.2622C45.6615 42.4043 45.9741 42.507 46.2865 42.5849C46.3779 42.6077 47.1577 42.7324 46.6794 42.669C47.7957 42.8168 49.0067 42.8109 49.939 41.9867C50.9722 41.0732 51.6797 39.6278 51.9908 38.188C52.1728 37.3455 52.5552 35.3307 51.8565 34.657C51.0559 33.8852 43.4825 34.0212 43.4825 34.0212ZM50.5105 31.7192C52.1017 31.7828 53.1635 32.1072 53.9483 33.9513C55.3863 37.3309 52.9248 42.3994 50.1788 43.7806C46.9685 45.3954 43.3822 43.6082 41.6849 40.3763C40.7861 38.665 40.3318 36.0732 40.3609 34.0987C40.3983 31.5788 41.9155 31.5089 43.699 31.5644L50.5105 31.7192Z" fill="#D6EAF2"/>
<path fill-rule="evenodd" clip-rule="evenodd" d="M24.039 33.2253C23.0411 33.2904 21.9009 33.306 20.9662 33.8064C19.9763 34.3364 19.8233 35.5365 21.0712 35.7019C21.6332 35.7764 22.1959 35.6532 22.7493 35.5387C23.2025 35.4448 23.8182 35.4752 24.2465 35.2743C25.0446 34.8999 24.9934 33.162 24.039 33.2253Z" fill="#D6EAF2"/>
<path fill-rule="evenodd" clip-rule="evenodd" d="M53.1493 33.2253C54.1472 33.2904 55.2874 33.306 56.2221 33.8064C57.212 34.3364 57.365 35.5365 56.1171 35.7019C55.5551 35.7764 54.9924 35.6532 54.439 35.5387C53.9858 35.4448 53.3701 35.4752 52.9418 35.2743C52.1436 34.8999 52.1949 33.162 53.1493 33.2253Z" fill="#D6EAF2"/>
<path fill-rule="evenodd" clip-rule="evenodd" d="M41.5606 33.9331C40.9914 33.1527 39.508 32.7021 38.5723 32.7021C37.6364 32.7021 36.1965 33.1527 35.6275 33.9331C35.3404 34.3265 35.3307 34.853 35.8281 35.0997C36.4475 35.4069 37.0006 34.8497 37.4964 34.5583C38.1305 34.1855 39.1047 34.2264 39.6916 34.5583C40.1912 34.8408 40.7404 35.4069 41.3599 35.0997C41.8573 34.853 41.8476 34.3265 41.5606 33.9331Z" fill="#D6EAF2"/>
</g>
</g>
</g>
<g clip-path="url(#clip0_3587_864)">
<mask id="mask6_3587_864" style="mask-type:alpha" maskUnits="userSpaceOnUse" x="52" y="41" width="38" height="54">
<path d="M75.5924 72.8165V76.7979H76.3494C83.8743 76.7979 89.9744 83.7773 89.9744 92.3868V94.3354H52.1272V92.3868C52.1272 83.7773 58.2273 76.7979 65.7522 76.7979H66.5091V72.8165C63.2472 71.0435 60.9025 67.4201 60.5113 63.1319C59.4091 62.9536 58.5612 61.8698 58.5612 60.5595V57.5283C58.5612 56.2409 59.3796 55.1722 60.4536 54.9661V53.6311C60.4536 46.9348 65.1981 41.5063 71.0508 41.5063C76.9035 41.5063 81.648 46.9348 81.648 53.6311V54.9661C82.722 55.1722 83.5404 56.2409 83.5404 57.5283V60.5595C83.5404 61.8698 82.6925 62.9536 81.5903 63.1319C81.1991 67.4201 78.8544 71.0435 75.5924 72.8165Z" fill="white"/>
</mask>
<g mask="url(#mask6_3587_864)">
<path d="M75.5924 72.8165V76.7979H76.3494C83.8743 76.7979 89.9744 83.7773 89.9744 92.3868V94.3354H52.1272V92.3868C52.1272 83.7773 58.2273 76.7979 65.7522 76.7979H66.5091V72.8165C63.2472 71.0435 60.9025 67.4201 60.5113 63.1319C59.4091 62.9536 58.5612 61.8698 58.5612 60.5595V57.5283C58.5612 56.2409 59.3796 55.1722 60.4536 54.9661V53.6311C60.4536 46.9348 65.1981 41.5063 71.0508 41.5063C76.9035 41.5063 81.648 46.9348 81.648 53.6311V54.9661C82.722 55.1722 83.5404 56.2409 83.5404 57.5283V60.5595C83.5404 61.8698 82.6925 62.9536 81.5903 63.1319C81.1991 67.4201 78.8544 71.0435 75.5924 72.8165Z" fill="#D0C6AC"/>
<path d="M96.0301 41.5063H46.0718V94.3354H96.0301V41.5063Z" fill="#AE5D29"/>
<path fill-rule="evenodd" clip-rule="evenodd" d="M81.648 58.6108V63.5906C81.648 70.2869 76.9035 75.7153 71.0508 75.7153C65.1981 75.7153 60.4536 70.2869 60.4536 63.5906V58.6108V61.8585C60.4536 68.5548 65.1981 73.9832 71.0508 73.9832C76.9035 73.9832 81.648 68.5548 81.648 61.8585V58.6108Z" fill="black" fill-opacity="0.1"/>
</g>
<mask id="mask7_3587_864" style="mask-type:alpha" maskUnits="userSpaceOnUse" x="52" y="77" width="38" height="18">
<path fill-rule="evenodd" clip-rule="evenodd" d="M80.4263 77.5189C85.9596 79.5016 89.9744 85.4133 89.9744 92.3979V94.3353H52.1272V92.3979C52.1272 85.3277 56.241 79.3569 61.8793 77.4478C61.8127 77.7548 61.7782 78.069 61.7782 78.3886C61.7782 81.9138 65.9721 84.7714 71.1454 84.7714C76.3188 84.7714 80.5126 81.9138 80.5126 78.3886C80.5126 78.0936 80.4832 77.8032 80.4263 77.5189Z" fill="white"/>
</mask>
<g mask="url(#mask7_3587_864)">
<path fill-rule="evenodd" clip-rule="evenodd" d="M80.4263 77.5189C85.9596 79.5016 89.9744 85.4133 89.9744 92.3979V94.3353H52.1272V92.3979C52.1272 85.3277 56.241 79.3569 61.8793 77.4478C61.8127 77.7548 61.7782 78.069 61.7782 78.3886C61.7782 81.9138 65.9721 84.7714 71.1454 84.7714C76.3188 84.7714 80.5126 81.9138 80.5126 78.3886C80.5126 78.0936 80.4832 77.8032 80.4263 77.5189Z" fill="#E6E6E6"/>
<path d="M96.0301 70.519H46.0718V94.3354H96.0301V70.519Z" fill="#FF5C5C"/>
</g>
<mask id="mask8_3587_864" style="mask-type:alpha" maskUnits="userSpaceOnUse" x="67" y="65" width="8" height="5">
<path fill-rule="evenodd" clip-rule="evenodd" d="M67.4778 65.9998C67.678 68.0549 69.2014 69.6528 71.051 69.6528C72.9063 69.6528 74.4334 68.045 74.626 65.9808C74.6415 65.8146 74.4793 65.5391 74.2761 65.5391C71.4576 65.5391 69.2982 65.5391 67.8504 65.5391C67.646 65.5391 67.4578 65.7942 67.4778 65.9998Z" fill="white"/>
</mask>
<g mask="url(#mask8_3587_864)">
<path fill-rule="evenodd" clip-rule="evenodd" d="M67.4778 65.9998C67.678 68.0549 69.2014 69.6528 71.051 69.6528C72.9063 69.6528 74.4334 68.045 74.626 65.9808C74.6415 65.8146 74.4793 65.5391 74.2761 65.5391C71.4576 65.5391 69.2982 65.5391 67.8504 65.5391C67.646 65.5391 67.4578 65.7942 67.4778 65.9998Z" fill="black" fill-opacity="0.7"/>
<path d="M73.1325 63.1572H69.1586C68.636 63.1572 68.2124 63.6419 68.2124 64.2398V65.5389C68.2124 66.1368 68.636 66.6214 69.1586 66.6214H73.1325C73.6551 66.6214 74.0787 66.1368 74.0787 65.5389V64.2398C74.0787 63.6419 73.6551 63.1572 73.1325 63.1572Z" fill="white"/>
<path d="M70.1048 72.6842C71.2544 72.6842 72.1864 71.6179 72.1864 70.3025C72.1864 68.9872 71.2544 67.9209 70.1048 67.9209C68.9552 67.9209 68.0232 68.9872 68.0232 70.3025C68.0232 71.6179 68.9552 72.6842 70.1048 72.6842Z" fill="#FF4F6D"/>
<path d="M71.9969 72.6842C73.1465 72.6842 74.0785 71.6179 74.0785 70.3025C74.0785 68.9872 73.1465 67.9209 71.9969 67.9209C70.8472 67.9209 69.9153 68.9872 69.9153 70.3025C69.9153 71.6179 70.8472 72.6842 71.9969 72.6842Z" fill="#FF4F6D"/>
</g>
<path fill-rule="evenodd" clip-rule="evenodd" d="M68.78 61.8584C68.78 62.815 69.7967 63.5905 71.0509 63.5905C72.305 63.5905 73.3217 62.815 73.3217 61.8584" fill="black" fill-opacity="0.16"/>
<path d="M66.1308 60.9925C67.5939 60.9925 68.7801 59.6354 68.7801 57.9614C68.7801 56.2873 67.5939 54.9302 66.1308 54.9302C64.6676 54.9302 63.4814 56.2873 63.4814 57.9614C63.4814 59.6354 64.6676 60.9925 66.1308 60.9925Z" fill="white"/>
<path d="M75.9711 60.9925C77.4342 60.9925 78.6204 59.6354 78.6204 57.9614C78.6204 56.2873 77.4342 54.9302 75.9711 54.9302C74.5079 54.9302 73.3218 56.2873 73.3218 57.9614C73.3218 59.6354 74.5079 60.9925 75.9711 60.9925Z" fill="white"/>
<path d="M66.1308 59.2607C66.7579 59.2607 67.2662 58.6791 67.2662 57.9617C67.2662 57.2442 66.7579 56.6626 66.1308 56.6626C65.5037 56.6626 64.9954 57.2442 64.9954 57.9617C64.9954 58.6791 65.5037 59.2607 66.1308 59.2607Z" fill="black" fill-opacity="0.7"/>
<path d="M75.9711 59.2607C76.5982 59.2607 77.1065 58.6791 77.1065 57.9617C77.1065 57.2442 76.5982 56.6626 75.9711 56.6626C75.344 56.6626 74.8357 57.2442 74.8357 57.9617C74.8357 58.6791 75.344 59.2607 75.9711 59.2607Z" fill="black" fill-opacity="0.7"/>
<path fill-rule="evenodd" clip-rule="evenodd" d="M68.7977 55.1734C68.7985 55.1716 68.7985 55.1716 68.7977 55.1734V55.1734ZM64.1026 52.5494C63.6545 52.4918 63.1834 52.657 62.8865 53.0763C62.7748 53.2339 62.5925 53.6132 62.601 53.8161C62.6041 53.8932 62.6435 53.8974 62.8136 53.9438C63.125 54.0287 63.6651 53.7027 64.0162 53.7334C64.5048 53.7762 64.9711 54.0356 65.3943 54.3134C66.1207 54.7903 66.9752 55.7945 67.872 55.742C67.9388 55.7381 68.8976 55.3655 68.7067 55.1526C68.6467 55.0478 68.1325 54.9083 68.044 54.8578C67.633 54.6231 67.2176 54.3278 66.8249 54.0527C65.968 53.4527 65.1322 52.6805 64.1026 52.5494Z" fill="black" fill-opacity="0.6"/>
<path fill-rule="evenodd" clip-rule="evenodd" d="M73.3273 55.1734C73.3265 55.1716 73.3265 55.1716 73.3273 55.1734V55.1734ZM78.0346 52.5494C78.4827 52.4918 78.9538 52.657 79.2507 53.0763C79.3624 53.2339 79.5447 53.6132 79.5363 53.8161C79.5331 53.8932 79.4937 53.8974 79.3236 53.9438C79.0122 54.0287 78.4721 53.7027 78.121 53.7334C77.6325 53.7762 77.1661 54.0356 76.7429 54.3134C76.0165 54.7903 75.162 55.7945 74.2652 55.742C74.1984 55.7381 73.2396 55.3655 73.4305 55.1526C73.4905 55.0478 74.0047 54.9083 74.0932 54.8578C74.5042 54.6231 74.9196 54.3278 75.3124 54.0527C76.1692 53.4527 77.005 52.6805 78.0346 52.5494Z" fill="black" fill-opacity="0.6"/>
<mask id="mask9_3587_864" style="mask-type:alpha" maskUnits="userSpaceOnUse" x="46" y="33" width="51" height="62">
<path d="M96.0301 33.7119H46.0718V94.3355H96.0301V33.7119Z" fill="white"/>
</mask>
<g mask="url(#mask9_3587_864)">
<mask id="mask10_3587_864" style="mask-type:alpha" maskUnits="userSpaceOnUse" x="60" y="41" width="22" height="15">
<path fill-rule="evenodd" clip-rule="evenodd" d="M75.5958 46.3514C74.2651 46.2012 72.689 46.1074 71.1099 46.1061C67.4568 46.1032 63.7875 46.5906 63.1028 47.1355C61.2665 48.7048 60.5552 54.5934 60.6427 54.93C60.5808 55.1947 60.3299 55.2522 60.2643 54.93C60.1282 52.7003 60.2643 41.4468 71.0507 41.2897C81.8372 41.1326 81.9733 52.7003 81.8372 54.93C81.7715 55.2522 81.5206 55.1947 81.4587 54.93C81.5463 54.5934 80.835 48.7048 78.9986 47.1355C78.6657 46.8706 77.6272 46.6181 76.228 46.4295L76.917 44.5374L75.5958 46.3514Z" fill="white"/>
</mask>
<g mask="url(#mask10_3587_864)">
<path fill-rule="evenodd" clip-rule="evenodd" d="M75.5958 46.3514C74.2651 46.2012 72.689 46.1074 71.1099 46.1061C67.4568 46.1032 63.7875 46.5906 63.1028 47.1355C61.2665 48.7048 60.5552 54.5934 60.6427 54.93C60.5808 55.1947 60.3299 55.2522 60.2643 54.93C60.1282 52.7003 60.2643 41.4468 71.0507 41.2897C81.8372 41.1326 81.9733 52.7003 81.8372 54.93C81.7715 55.2522 81.5206 55.1947 81.4587 54.93C81.5463 54.5934 80.835 48.7048 78.9986 47.1355C78.6657 46.8706 77.6272 46.6181 76.228 46.4295L76.917 44.5374L75.5958 46.3514Z" fill="#28354B"/>
<path d="M110.033 41.0728H60.0752V101.696H110.033V41.0728Z" fill="#2C1B18"/>
</g>
</g>
</g>
<defs>
<filter id="filter0_d_3587_864" x="16.1794" y="29.5537" width="44.8293" height="20.8315" filterUnits="userSpaceOnUse" color-interpolation-filters="sRGB">
<feFlood flood-opacity="0" result="BackgroundImageFix"/>
<feColorMatrix in="SourceAlpha" type="matrix" values="0 0 0 0 0 0 0 0 0 0 0 0 0 0 0 0 0 0 127 0" result="hardAlpha"/>
<feOffset dy="2"/>
<feGaussianBlur stdDeviation="2"/>
<feColorMatrix type="matrix" values="0 0 0 0 0 0 0 0 0 0 0 0 0 0 0 0 0 0 0.2 0"/>
<feBlend mode="normal" in2="BackgroundImageFix" result="effect1_dropShadow_3587_864"/>
<feBlend mode="normal" in="SourceGraphic" in2="effect1_dropShadow_3587_864" result="shape"/>
</filter>
<clipPath id="clip0_3587_864">
<rect width="56.2031" height="67.0979" fill="white" transform="translate(52.7969 27.2378)"/>
</clipPath>
</defs>
</svg>
