<svg width="98" height="96" viewBox="0 0 98 96" fill="none" xmlns="http://www.w3.org/2000/svg">
<mask id="mask0_3587_812" style="mask-type:alpha" maskUnits="userSpaceOnUse" x="11" y="12" width="76" height="84">
<path d="M57.9092 61.9237V68.2285H59.3941C74.1551 68.2285 86.1213 79.2807 86.1213 92.9142V95.9999H11.8789V92.9142C11.8789 79.2807 23.8451 68.2285 38.6062 68.2285H40.091V61.9237C33.6923 59.1162 29.0928 53.3783 28.3255 46.5878C26.1633 46.3054 24.5001 44.5892 24.5001 42.5142V37.7142C24.5001 35.6756 26.1055 33.9833 28.2122 33.6568V31.5428C28.2122 20.9389 37.5193 12.3428 49.0001 12.3428C60.4809 12.3428 69.788 20.9389 69.788 31.5428V33.6568C71.8948 33.9833 73.5001 35.6756 73.5001 37.7142V42.5142C73.5001 44.5892 71.837 46.3054 69.6747 46.5878C68.9074 53.3783 64.3079 59.1162 57.9092 61.9237Z" fill="white"/>
</mask>
<g mask="url(#mask0_3587_812)">
<path d="M57.9092 61.9237V68.2285H59.3941C74.1551 68.2285 86.1213 79.2807 86.1213 92.9142V95.9999H11.8789V92.9142C11.8789 79.2807 23.8451 68.2285 38.6062 68.2285H40.091V61.9237C33.6923 59.1162 29.0928 53.3783 28.3255 46.5878C26.1633 46.3054 24.5001 44.5892 24.5001 42.5142V37.7142C24.5001 35.6756 26.1055 33.9833 28.2122 33.6568V31.5428C28.2122 20.9389 37.5193 12.3428 49.0001 12.3428C60.4809 12.3428 69.788 20.9389 69.788 31.5428V33.6568C71.8948 33.9833 73.5001 35.6756 73.5001 37.7142V42.5142C73.5001 44.5892 71.837 46.3054 69.6747 46.5878C68.9074 53.3783 64.3079 59.1162 57.9092 61.9237Z" fill="#D0C6AC"/>
<path d="M98 12.3428H0V95.9999H98V12.3428Z" fill="#AE5D29"/>
<path fill-rule="evenodd" clip-rule="evenodd" d="M69.7879 39.4287V47.3144C69.7879 57.9183 60.4809 66.5144 49 66.5144C37.5192 66.5144 28.2122 57.9183 28.2122 47.3144V39.4287V44.5716C28.2122 55.1754 37.5192 63.7716 49 63.7716C60.4809 63.7716 69.7879 55.1754 69.7879 44.5716V39.4287Z" fill="black" fill-opacity="0.1"/>
</g>
<mask id="mask1_3587_812" style="mask-type:alpha" maskUnits="userSpaceOnUse" x="25" y="68" width="48" height="28">
<path fill-rule="evenodd" clip-rule="evenodd" d="M34.8939 68.4644V83.6569H63.1061V68.4644C66.5817 68.9104 69.8436 69.9738 72.7576 71.5307L72.7576 95.9998H69.4167H28.5833H25.2424V71.5307C28.1565 69.9738 31.4183 68.9104 34.8939 68.4644Z" fill="white"/>
</mask>
<g mask="url(#mask1_3587_812)">
<path fill-rule="evenodd" clip-rule="evenodd" d="M34.8939 68.4644V83.6569H63.1061V68.4644C66.5817 68.9104 69.8436 69.9738 72.7576 71.5307L72.7576 95.9998H69.4167H28.5833H25.2424V71.5307C28.1565 69.9738 31.4183 68.9104 34.8939 68.4644Z" fill="#B7C1DB"/>
<path d="M98 58.2856H0V95.9999H98V58.2856Z" fill="#FFAFB9"/>
<path d="M30.0682 88.4574C31.0933 88.4574 31.9243 87.6899 31.9243 86.7431C31.9243 85.7963 31.0933 85.0288 30.0682 85.0288C29.0431 85.0288 28.2122 85.7963 28.2122 86.7431C28.2122 87.6899 29.0431 88.4574 30.0682 88.4574Z" fill="#F4F4F4"/>
<path d="M67.9317 88.4574C68.9568 88.4574 69.7878 87.6899 69.7878 86.7431C69.7878 85.7963 68.9568 85.0288 67.9317 85.0288C66.9067 85.0288 66.0757 85.7963 66.0757 86.7431C66.0757 87.6899 66.9067 88.4574 67.9317 88.4574Z" fill="#F4F4F4"/>
</g>
<mask id="mask2_3587_812" style="mask-type:alpha" maskUnits="userSpaceOnUse" x="41" y="50" width="16" height="7">
<path fill-rule="evenodd" clip-rule="evenodd" d="M41.9907 51.13C42.3834 54.3843 45.3717 56.9147 49 56.9147C52.6394 56.9147 55.635 54.3687 56.0128 51.0998C56.0432 50.8368 55.7251 50.4004 55.3264 50.4004C49.7976 50.4004 45.5618 50.4004 42.7216 50.4004C42.3206 50.4004 41.9514 50.8044 41.9907 51.13Z" fill="white"/>
</mask>
<g mask="url(#mask2_3587_812)">
<path fill-rule="evenodd" clip-rule="evenodd" d="M41.9907 51.13C42.3834 54.3843 45.3717 56.9147 49 56.9147C52.6394 56.9147 55.635 54.3687 56.0128 51.0998C56.0432 50.8368 55.7251 50.4004 55.3264 50.4004C49.7976 50.4004 45.5618 50.4004 42.7216 50.4004C42.3206 50.4004 41.9514 50.8044 41.9907 51.13Z" fill="black" fill-opacity="0.7"/>
<path d="M53.0829 46.6289H45.2875C44.2624 46.6289 43.4314 47.3964 43.4314 48.3432V50.4003C43.4314 51.3471 44.2624 52.1146 45.2875 52.1146H53.0829C54.108 52.1146 54.939 51.3471 54.939 50.4003V48.3432C54.939 47.3964 54.108 46.6289 53.0829 46.6289Z" fill="white"/>
<path d="M47.1436 61.7142C49.3988 61.7142 51.227 60.0257 51.227 57.9428C51.227 55.8599 49.3988 54.1714 47.1436 54.1714C44.8885 54.1714 43.0603 55.8599 43.0603 57.9428C43.0603 60.0257 44.8885 61.7142 47.1436 61.7142Z" fill="#FF4F6D"/>
<path d="M50.8556 61.7142C53.1107 61.7142 54.9389 60.0257 54.9389 57.9428C54.9389 55.8599 53.1107 54.1714 50.8556 54.1714C48.6004 54.1714 46.7722 55.8599 46.7722 57.9428C46.7722 60.0257 48.6004 61.7142 50.8556 61.7142Z" fill="#FF4F6D"/>
</g>
<path fill-rule="evenodd" clip-rule="evenodd" d="M44.5454 44.5718C44.5454 46.0866 46.5398 47.3146 49 47.3146C51.4601 47.3146 53.4545 46.0866 53.4545 44.5718" fill="black" fill-opacity="0.16"/>
<path d="M39.3486 43.2001C42.2188 43.2001 44.5455 41.0511 44.5455 38.4001C44.5455 35.7491 42.2188 33.6001 39.3486 33.6001C36.4784 33.6001 34.1516 35.7491 34.1516 38.4001C34.1516 41.0511 36.4784 43.2001 39.3486 43.2001Z" fill="white"/>
<path d="M58.6516 43.2001C61.5218 43.2001 63.8485 41.0511 63.8485 38.4001C63.8485 35.7491 61.5218 33.6001 58.6516 33.6001C55.7814 33.6001 53.4546 35.7491 53.4546 38.4001C53.4546 41.0511 55.7814 43.2001 58.6516 43.2001Z" fill="white"/>
<path d="M39.3484 40.4571C40.5785 40.4571 41.5756 39.536 41.5756 38.3999C41.5756 37.2638 40.5785 36.3428 39.3484 36.3428C38.1183 36.3428 37.1211 37.2638 37.1211 38.3999C37.1211 39.536 38.1183 40.4571 39.3484 40.4571Z" fill="black" fill-opacity="0.7"/>
<path d="M58.6513 40.4571C59.8814 40.4571 60.8786 39.536 60.8786 38.3999C60.8786 37.2638 59.8814 36.3428 58.6513 36.3428C57.4213 36.3428 56.4241 37.2638 56.4241 38.3999C56.4241 39.536 57.4213 40.4571 58.6513 40.4571Z" fill="black" fill-opacity="0.7"/>
<path d="M34.0142 33.9977C35.4674 32.109 39.4515 31.0499 42.8834 31.8283C43.2816 31.9186 43.6837 31.6937 43.7815 31.3259C43.8793 30.9581 43.6358 30.5868 43.2376 30.4965C39.252 29.5925 34.6385 30.8189 32.8038 33.2032C32.5663 33.5119 32.6447 33.94 32.9789 34.1594C33.3131 34.3788 33.7766 34.3064 34.0142 33.9977Z" fill="black" fill-opacity="0.6"/>
<path d="M63.9858 33.9977C62.5326 32.109 58.5484 31.0499 55.1165 31.8283C54.7183 31.9186 54.3163 31.6937 54.2185 31.3259C54.1207 30.9581 54.3642 30.5868 54.7624 30.4965C58.748 29.5925 63.3615 30.8189 65.1962 33.2032C65.4337 33.5119 65.3553 33.94 65.0211 34.1594C64.6869 34.3788 64.2234 34.3064 63.9858 33.9977Z" fill="black" fill-opacity="0.6"/>
<mask id="mask3_3587_812" style="mask-type:alpha" maskUnits="userSpaceOnUse" x="0" y="0" width="98" height="96">
<path d="M98 0H0V96H98V0Z" fill="white"/>
</mask>
<g mask="url(#mask3_3587_812)">
<mask id="mask4_3587_812" style="mask-type:alpha" maskUnits="userSpaceOnUse" x="27" y="0" width="44" height="34">
<path fill-rule="evenodd" clip-rule="evenodd" d="M42.2957 9.71563C41.9296 9.79156 41.5703 9.87107 41.2181 9.95313C35.6158 11.2587 32.3016 14.9662 29.4581 20.4508C28.0619 23.1438 27.2343 26.3285 27.1069 29.3079C27.057 30.4777 27.2277 31.6852 27.569 32.8116C27.6942 33.225 28.3691 34.6584 28.5545 33.5002C28.6161 33.1146 28.3904 32.5827 28.3685 32.1729C28.3399 31.6352 28.3706 31.0906 28.4103 30.5537C28.4845 29.55 28.6783 28.5653 29.023 27.6084C29.5157 26.2412 30.1428 24.7587 31.1028 23.6051C33.4789 20.7499 35.1778 14.8133 48.9999 14.2871C62.8221 13.7609 67.096 23.1295 68.3708 25.1317C69.8798 27.5022 69.1855 30.414 69.6464 32.9831C69.8217 33.9601 70.2199 33.9382 70.4379 33.0644C70.808 31.58 70.9828 30.0378 70.865 28.5118C70.5984 25.0668 69.2297 16.0134 61.7358 12.0021C59.7155 10.9207 57.7005 10.1786 55.725 9.69695C56.8607 8.67808 57.5378 7.3946 57.5378 6C57.5378 2.68629 53.7153 0 48.9999 0C44.2846 0 40.462 2.68629 40.462 6C40.462 7.40314 41.1474 8.69378 42.2957 9.71563Z" fill="white"/>
</mask>
<g mask="url(#mask4_3587_812)">
<path fill-rule="evenodd" clip-rule="evenodd" d="M42.2957 9.71563C41.9296 9.79156 41.5703 9.87107 41.2181 9.95313C35.6158 11.2587 32.3016 14.9662 29.4581 20.4508C28.0619 23.1438 27.2343 26.3285 27.1069 29.3079C27.057 30.4777 27.2277 31.6852 27.569 32.8116C27.6942 33.225 28.3691 34.6584 28.5545 33.5002C28.6161 33.1146 28.3904 32.5827 28.3685 32.1729C28.3399 31.6352 28.3706 31.0906 28.4103 30.5537C28.4845 29.55 28.6783 28.5653 29.023 27.6084C29.5157 26.2412 30.1428 24.7587 31.1028 23.6051C33.4789 20.7499 35.1778 14.8133 48.9999 14.2871C62.8221 13.7609 67.096 23.1295 68.3708 25.1317C69.8798 27.5022 69.1855 30.414 69.6464 32.9831C69.8217 33.9601 70.2199 33.9382 70.4379 33.0644C70.808 31.58 70.9828 30.0378 70.865 28.5118C70.5984 25.0668 69.2297 16.0134 61.7358 12.0021C59.7155 10.9207 57.7005 10.1786 55.725 9.69695C56.8607 8.67808 57.5378 7.3946 57.5378 6C57.5378 2.68629 53.7153 0 48.9999 0C44.2846 0 40.462 2.68629 40.462 6C40.462 7.40314 41.1474 8.69378 42.2957 9.71563Z" fill="#28354B"/>
<path d="M97.6286 0H-0.371338V96H97.6286V0Z" fill="#2C1B18"/>
</g>
</g>
</svg>
