<svg width="79" height="92" viewBox="0 0 79 92" fill="none" xmlns="http://www.w3.org/2000/svg">
<g clip-path="url(#clip0_3480_363)">
<path d="M45.0396 0.517437L48.9738 3.86352C50.2969 4.98463 49.75 7.10611 48.0387 7.48557L41.9876 8.81365C40.2763 9.1931 38.8474 7.50281 39.553 5.93326L41.6524 1.25909C42.2522 -0.0344941 43.9458 -0.413947 45.0396 0.517437Z" fill="#C68F66"/>
<path d="M17.0069 5.43296L20.941 8.77904C22.2642 9.90015 21.7173 12.0216 20.006 12.4011L13.9549 13.7292C12.2436 14.1086 10.8146 12.4183 11.5203 10.8488L13.6197 6.17462C14.2195 4.88103 15.9131 4.51883 17.0069 5.43296Z" fill="#C68F66"/>
<path d="M45.773 90.9714C53.514 89.6223 59.4622 86.7345 59.0586 84.5212C58.6551 82.308 52.0526 81.6075 44.3117 82.9566C36.5707 84.3057 30.6226 87.1936 31.0261 89.4068C31.4296 91.62 38.0321 92.3205 45.773 90.9714Z" stroke="#29ABE2" stroke-width="4" stroke-miterlimit="10"/>
<path d="M45.3844 90.0192C52.2237 88.8272 57.5047 86.4165 57.1798 84.6347C56.8549 82.8528 51.0472 82.3746 44.2079 83.5666C37.3686 84.7586 32.0876 87.1693 32.4125 88.9511C32.7374 90.733 38.5451 91.2112 45.3844 90.0192Z" stroke="#29ABE2" stroke-width="4" stroke-miterlimit="10"/>
<path d="M25.4217 56.2278C25.5982 56.0554 25.7922 55.9001 26.0216 55.7621C27.627 54.8308 35.0542 50.1394 33.5899 44.3786C31.9492 37.9106 26.6037 34.3748 25.1042 32.3223C23.6046 30.2698 23.7458 26.803 25.4394 25.8544C27.133 24.9058 30.5908 20.4386 34.719 22.0426C38.8472 23.6467 43.1165 21.9909 44.5102 23.9571C45.9215 25.9061 39.888 35.9271 41.811 43.3437C43.7339 50.7603 51.267 52.5023 52.5901 53.8476C53.9133 55.193 54.4072 58.884 52.8195 60.0224C51.2317 61.1607 46.0979 63.7652 42.1991 63.0235C38.3003 62.2818 34.7719 64.0929 32.549 64.3343C30.3085 64.5758 25.1571 65.8694 24.3103 64.0929C23.4635 62.3163 23.1459 59.6429 23.9045 58.2458C24.3985 57.349 25.0513 56.6073 25.4217 56.2278Z" fill="#C68F66"/>
<path d="M52.4316 30.1319L41.8818 31.9774C41.8818 31.9774 40.3646 33.6159 40.1352 33.8057C37.5419 35.8581 33.5019 36.4618 31.3849 35.4097L28.7386 34.2713L17.7831 36.1859C16.7246 36.3756 15.719 35.7719 15.5426 34.8405L11.3614 11.9009C11.185 10.9695 11.9083 10.0726 12.9845 9.88289L47.6154 3.84615C48.6739 3.65642 49.6794 4.2601 49.8559 5.19148L54.037 28.1311C54.2134 29.0452 53.4901 29.9421 52.4316 30.1319Z" fill="#C68F66"/>
<path d="M50.3321 28.4416L40.3997 30.1664L39.059 29.4075C36.3598 27.7862 32.6197 28.6486 30.7497 30.8046C30.5027 31.0978 29.6735 32.0292 29.6735 32.0292L19.0002 33.8919C18.224 34.0299 17.483 33.5815 17.3595 32.9088L13.743 12.8668C13.6195 12.1941 14.1487 11.5215 14.925 11.3835L46.2392 5.93318C47.0154 5.79519 47.7564 6.24364 47.8799 6.9163L51.5141 26.9583C51.6552 27.6482 51.1083 28.3036 50.3321 28.4416Z" fill="#DFF0F2"/>
<path d="M27.5532 24.6298C29.1455 24.3523 29.9886 21.6717 29.4363 18.6426C28.884 15.6135 27.1454 13.3828 25.5531 13.6604C23.9608 13.9379 23.1177 16.6184 23.67 19.6475C24.2223 22.6767 25.9609 24.9073 27.5532 24.6298Z" fill="black" stroke="black" stroke-miterlimit="10"/>
<path d="M24.0815 21.0939C23.8345 18.5757 24.6108 16.4887 25.9868 16.2128C27.31 15.9541 28.7919 17.4546 29.6034 19.7313C29.5681 19.3519 29.5152 18.9724 29.427 18.5757C28.7919 15.5574 27.0101 13.3669 25.4223 13.6601C23.8345 13.9706 23.0583 16.6612 23.6934 19.6796C23.7816 20.1798 23.9227 20.6455 24.0815 21.0939Z" fill="white" stroke="black" stroke-miterlimit="10"/>
<path d="M28.2161 20.999C28.5711 20.9372 28.8089 20.6133 28.7473 20.2757C28.6857 19.9381 28.3481 19.7146 27.9932 19.7764C27.6383 19.8383 27.4005 20.1621 27.462 20.4997C27.5236 20.8373 27.8612 21.0609 28.2161 20.999Z" fill="white" stroke="black" stroke-miterlimit="10"/>
<path d="M40.3081 22.4047C41.9004 22.1272 42.7435 19.4466 42.1912 16.4175C41.6388 13.3884 39.9003 11.1577 38.308 11.4353C36.7156 11.7128 35.8725 14.3933 36.4249 17.4224C36.9772 20.4516 38.7157 22.6822 40.3081 22.4047Z" fill="black" stroke="black" stroke-miterlimit="10"/>
<path d="M36.8364 18.8691C36.5894 16.3509 37.3657 14.2639 38.7417 13.9879C40.0649 13.7292 41.5468 15.2298 42.3583 17.5065C42.323 17.127 42.2701 16.7476 42.1819 16.3509C41.5468 13.3325 39.7649 11.142 38.1772 11.4352C36.5894 11.7285 35.8132 14.4364 36.4483 17.4547C36.5365 17.9549 36.6776 18.4206 36.8364 18.8691Z" fill="white" stroke="black" stroke-miterlimit="10"/>
<path d="M40.971 18.7739C41.3259 18.7121 41.5637 18.3882 41.5022 18.0506C41.4406 17.713 41.103 17.4895 40.7481 17.5513C40.3932 17.6132 40.1554 17.937 40.2169 18.2746C40.2785 18.6122 40.6161 18.8358 40.971 18.7739Z" fill="white" stroke="black" stroke-miterlimit="10"/>
<path d="M14.7837 68.1805L23.5693 74.614L16.4244 66.5592L24.275 73.2686L17.5535 66.0763L25.0159 72.5615L18.1709 65.9038L25.3335 72.2338L20.6408 67.0767L24.4161 70.7505L21.8933 67.7321L24.4514 69.8536L22.8107 67.8183L24.5925 69.5603" fill="#29ABE2"/>
<path d="M69.4362 57.7609C71.748 57.358 73.1729 54.5682 72.6188 51.5297C72.0648 48.4912 69.7417 46.3547 67.4299 46.7576C65.1182 47.1604 63.6933 49.9502 64.2473 52.9887C64.8013 56.0272 67.1245 58.1638 69.4362 57.7609Z" fill="#29ABE2" stroke="#F2F2F2" stroke-width="0.75" stroke-miterlimit="10"/>
<path d="M73.6281 58.1147C76.6925 57.8226 79.0633 56.4483 78.9233 55.0452C78.7834 53.642 76.1858 52.7413 73.1214 53.0334C70.057 53.3255 67.6862 54.6998 67.8261 56.1029C67.9661 57.5061 70.5637 58.4068 73.6281 58.1147Z" fill="#29ABE2" stroke="#F2F2F2" stroke-width="0.75" stroke-miterlimit="10"/>
<path d="M73.3741 55.5682C76.4053 55.04 78.6573 53.4865 78.4043 52.0986C78.1512 50.7106 75.4888 50.0137 72.4576 50.542C69.4265 51.0703 67.1744 52.6237 67.4275 54.0117C67.6805 55.3996 70.3429 56.0965 73.3741 55.5682Z" fill="#29ABE2" stroke="#F2F2F2" stroke-width="0.75" stroke-miterlimit="10"/>
<path d="M73.3898 53.0026C74.9776 52.6404 76.3713 51.9505 77.0946 51.0709C77.7297 50.2775 77.7473 48.6389 77.4827 47.9663C77.1475 47.1384 76.0537 46.3795 74.6953 46.4312C73.6897 46.4657 71.8197 46.8107 70.4083 47.4316C69.0499 48.018 67.6562 49.0011 67.0211 49.898C66.7565 50.2775 66.9152 51.2434 67.2152 51.9678C67.7973 53.3821 70.426 53.6753 73.3898 53.0026Z" fill="#29ABE2" stroke="#F2F2F2" stroke-width="0.75" stroke-miterlimit="10"/>
<path d="M71.4494 45.0168C70.4085 47.8454 68.0974 49.9842 66.6684 49.1218C66.1039 48.7768 66.4567 46.8796 67.5153 44.0509C68.5561 41.2223 66.492 36.5136 70.4614 38.8766C71.8904 39.739 72.4902 42.1881 71.4494 45.0168Z" fill="#29ABE2" stroke="#F2F2F2" stroke-width="0.75" stroke-miterlimit="10"/>
<path d="M64.1456 50.5017L63.6516 57.6423L62.5931 50.6052L62.6637 57.4181L61.8521 50.9674L61.9756 57.4698L61.4993 51.1916L61.6581 57.4871L61.0406 52.9337L61.3052 56.3832L60.8289 53.8305L60.8113 56.021L60.4761 54.3135L60.5996 55.952" fill="#29ABE2"/>
<path d="M39.6943 31.3736C39.7119 31.477 38.1241 33.3571 36.0601 33.771C33.996 34.185 32.0024 32.7189 32.0024 32.7189C32.0024 32.7189 34.3664 32.6499 35.9013 32.3567C37.4008 32.098 39.5531 31.3218 39.6943 31.3736Z" fill="black"/>
<path d="M39.6947 31.3736C39.5536 31.3219 37.4013 32.098 35.9193 32.374C34.3845 32.65 32.0205 32.7362 32.0205 32.7362C32.0205 32.7362 33.9435 31.3219 35.4783 31.0459C36.9779 30.7699 39.5712 31.2701 39.6947 31.3736Z" fill="white"/>
<path d="M40.7702 63.9894C31.1378 65.6624 22.0699 61.7471 18.3475 54.917C18.2769 56.3831 18.3828 57.8664 18.6474 59.3669C20.6762 70.5091 31.5612 77.9256 42.9402 75.9249C54.3368 73.9414 61.9227 63.2995 59.8763 52.1746C59.594 50.674 59.1706 49.2425 58.5884 47.8799C57.5299 55.5724 50.4026 62.2991 40.7702 63.9894Z" fill="url(#paint0_linear_3480_363)"/>
<path d="M40.8231 63.9204C49.5558 62.4026 56.2597 56.3141 58.8354 48.6216C57.0183 43.8439 53.4723 40.0322 49.0442 37.7209C46.0275 41.0153 41.9169 43.3955 37.1007 44.2406C32.3022 45.0858 27.5918 44.2406 23.5871 42.1536C20.3234 45.7239 18.3651 50.3981 18.2593 55.3655C23.4107 61.9024 31.967 65.4727 40.8231 63.9204Z" fill="url(#paint1_linear_3480_363)"/>
<path d="M19.1526 20.7107L19.5513 20.895L24.5214 10.6199L24.1227 10.4355L19.1526 20.7107Z" fill="white"/>
<path d="M18.9677 23.8539L19.2388 23.9792L21.6371 19.021L21.366 18.8956L18.9677 23.8539Z" fill="white"/>
<path d="M8.66217 80.6681C9.50897 79.34 10.4087 78.1672 11.2908 77.2013C11.1497 77.0806 11.0262 76.9426 10.9027 76.8046C10.2676 77.7877 9.52662 78.8398 8.69745 79.892C7.26846 81.7202 5.76891 83.1863 4.67512 83.7555C3.70482 84.2384 2.71688 83.6175 2.52282 83.0138C2.29348 82.2722 2.6816 80.6336 3.7401 78.9433C4.53399 77.7015 6.19231 75.511 7.63894 73.9932C8.06235 73.5448 8.52103 73.1136 8.96208 72.6996C8.0447 72.7686 7.03912 72.7341 6.0159 72.5961C3.14028 72.2167 0.0529669 70.7679 4.14741e-05 68.4221C-0.105809 64.2482 4.02237 67.7495 7.37432 68.5084C8.69745 68.8016 9.82653 69.1121 10.691 69.4053C12.5257 68.2497 15.4366 68.7326 17.6595 70.6989C19.1943 72.0442 20.0411 73.7862 20.1117 75.3558C20.147 75.5283 20.1293 75.7352 20.0941 75.9767C20.0411 76.4424 19.9353 76.8908 19.7236 77.2875C19.1414 78.8916 17.9241 81.1338 16.3187 83.4795C13.4784 87.619 10.4793 90.5166 9.61482 89.9475C8.75038 89.3783 11.3261 85.946 13.743 81.5478C14.2193 80.6854 14.6957 79.892 15.172 79.1848C15.0309 79.1503 14.8721 79.1331 14.7309 79.0813C13.9724 80.1334 13.0726 81.358 12.2082 82.7034C9.47369 86.9291 7.33903 90.4649 6.06882 89.6887C4.79861 88.8953 5.94533 84.8593 8.66217 80.6681Z" fill="#29ABE2"/>
<path d="M18.2772 54.4513C18.2772 54.4513 17.942 58.0389 18.6124 59.091C18.5771 58.8668 43.5931 78.6155 59.8942 52.1746C59.8942 52.1746 59.6472 49.8806 58.6063 47.8799C58.6063 47.8971 45.4103 74.1311 18.2772 54.4513Z" fill="#E8540F"/>
<path d="M18.2769 54.4514L20.0587 59.2118L21.8405 57.6422L23.587 60.8848L25.3336 59.3843L26.5509 62.2819L28.7208 60.9711L30.4321 63.61L32.6196 62.0749L34.225 64.2827L36.3597 62.6441L38.6355 65.0071L40.4173 62.7304L43.0283 64.0067L44.4749 62.0749L47.2623 62.5579L48.2503 59.9535L51.0377 60.4364L51.514 57.6422H54.5484V55.0378L57.3358 54.3479V52.0195L58.8001 52.2609L58.5707 47.8972C58.606 47.8972 46.3803 73.1481 18.2769 54.4514Z" fill="#F7931E" stroke="white" stroke-width="0.25" stroke-miterlimit="10"/>
</g>
<defs>
<linearGradient id="paint0_linear_3480_363" x1="22.1246" y1="48.5256" x2="55.9529" y2="68.5025" gradientUnits="userSpaceOnUse">
<stop offset="0.1378" stop-color="#E8540F"/>
<stop offset="0.2264" stop-color="#E85D0D"/>
<stop offset="0.3736" stop-color="#E77709"/>
<stop offset="0.5521" stop-color="#E59E03"/>
<stop offset="0.9806" stop-color="#E5C500"/>
</linearGradient>
<linearGradient id="paint1_linear_3480_363" x1="23.3592" y1="41.7228" x2="53.1097" y2="59.2916" gradientUnits="userSpaceOnUse">
<stop offset="0.1378" stop-color="#E8540F"/>
<stop offset="0.2264" stop-color="#E85D0D"/>
<stop offset="0.3736" stop-color="#E77709"/>
<stop offset="0.5521" stop-color="#E59E03"/>
<stop offset="0.9806" stop-color="#E5C500"/>
</linearGradient>
<clipPath id="clip0_3480_363">
<rect width="79" height="92" fill="white"/>
</clipPath>
</defs>
</svg>
